<?xml version="1.0" encoding="UTF-8" standalone="no"?>
<!DOCTYPE svg PUBLIC "-//W3C//DTD SVG 1.1//EN" "http://www.w3.org/Graphics/SVG/1.1/DTD/svg11.dtd">
<svg width="100%" height="100%" viewBox="0 0 2048 2048" version="1.1" xmlns="http://www.w3.org/2000/svg" xmlns:xlink="http://www.w3.org/1999/xlink" xml:space="preserve" xmlns:serif="http://www.serif.com/" style="fill-rule:evenodd;clip-rule:evenodd;stroke-linejoin:round;stroke-miterlimit:2;">
    <g transform="matrix(2.37069,0,0,2.39304,-1403.58,-1426.48)">
        <g id="Layer-1">
            <g>
                <g id="Color-1" serif:id="Color 1">
                    <path d="M1413.03,1186.82C1391.77,1236.63 1361.32,1281.35 1322.56,1319.77C1283.78,1358.17 1238.64,1388.33 1188.36,1409.4C1136.29,1431.22 1080.99,1442.27 1024,1442.27C967.006,1442.27 911.71,1431.22 859.641,1409.4C809.36,1388.33 764.206,1358.17 725.439,1319.77C686.671,1281.35 656.229,1236.63 634.963,1186.82C612.94,1135.24 601.774,1080.46 601.774,1024C601.774,967.541 612.94,912.762 634.963,861.18C656.229,811.373 686.671,766.644 725.439,728.233C764.206,689.826 809.36,659.669 859.641,638.601C911.71,616.784 967.006,605.722 1024,605.722C1080.99,605.722 1136.29,616.784 1188.36,638.601C1238.64,659.669 1283.79,689.826 1322.56,728.233C1361.32,766.644 1391.77,811.373 1413.03,861.181C1435.06,912.762 1446.22,967.541 1446.22,1024C1446.22,1080.46 1435.06,1135.24 1413.03,1186.82M1421.99,857.43C1400.23,806.476 1369.09,760.717 1329.43,721.425C1289.77,682.137 1243.58,651.287 1192.14,629.733C1138.86,607.412 1082.3,596.095 1024,596.095C965.699,596.095 909.133,607.412 855.858,629.733C804.419,651.287 758.227,682.138 718.569,721.425C678.903,760.717 647.765,806.476 626.013,857.429C603.48,910.204 592.056,966.246 592.056,1024C592.056,1081.75 603.48,1137.79 626.013,1190.57C647.765,1241.52 678.912,1287.28 718.569,1326.57C758.227,1365.86 804.419,1396.7 855.858,1418.26C909.133,1440.58 965.699,1451.91 1024,1451.91C1082.3,1451.91 1138.86,1440.58 1192.14,1418.26C1243.58,1396.71 1289.77,1365.86 1329.43,1326.57C1369.08,1287.28 1400.23,1241.52 1421.99,1190.57C1444.51,1137.79 1455.94,1081.75 1455.94,1024C1455.94,966.246 1444.51,910.204 1421.99,857.43" style="fill:rgb(255,248,240);fill-rule:nonzero;"/>
                    <path d="M842.843,780.234L850.185,804.268L863.868,794.304L842.843,780.234ZM877.893,804.532L855.868,820.576L859.854,833.08L841.508,846.443L820.225,767.108L836.957,754.918L907.594,798.302L888.739,812.035L877.893,804.532Z" style="fill:rgb(255,248,240);fill-rule:nonzero;"/>
                    <path d="M960.656,721.181L940.679,727.431L958.144,782.219L937.787,788.586L920.322,733.798L900.345,740.048L894.589,721.975L954.899,703.107L960.656,721.181Z" style="fill:rgb(255,248,240);fill-rule:nonzero;"/>
                    <path d="M1053.25,754.815L1053.1,774.092L1004.11,773.694L1004.74,697.287L1026.28,697.462L1025.81,754.592L1053.25,754.815Z" style="fill:rgb(255,248,240);fill-rule:nonzero;"/>
                    <path d="M1127.8,739.237L1111.72,758.648L1127.68,764.376L1127.8,739.237ZM1126.9,781.613L1101.19,772.391L1092.91,782.617L1071.5,774.936L1126.25,713.314L1145.78,720.321L1148.62,802.607L1126.63,794.714L1126.9,781.613Z" style="fill:rgb(255,248,240);fill-rule:nonzero;"/>
                    <path d="M1178.13,793.433L1194.95,807.367C1191.41,811.554 1192.95,816.294 1196.66,819.374C1200.08,822.202 1204.86,823.106 1207.56,819.904C1210.67,816.227 1206.96,811.346 1202.47,805.327C1195.7,796.134 1186.97,784.493 1198.25,771.151C1207.99,759.61 1222.14,760.092 1236.09,771.654C1250.26,783.408 1252.31,797.361 1242.23,809.285L1225.89,795.738C1229.02,792.032 1227.7,787.983 1224.32,785.183C1221.42,782.777 1217.58,781.711 1215.27,784.447C1212.46,787.775 1215.99,792.571 1220.38,798.575C1227.22,808.017 1236.16,820.334 1224.86,833.717C1214.05,846.516 1198.52,844.931 1184.78,833.545C1170.3,821.546 1167.34,806.207 1178.13,793.433" style="fill:rgb(255,248,240);fill-rule:nonzero;"/>
                    <path d="M767.719,1203.64L751.663,1213.01L727.858,1172.97L791.506,1135.84L801.963,1153.45L754.38,1181.2L767.719,1203.64Z" style="fill:rgb(255,248,240);fill-rule:nonzero;"/>
                    <path d="M841.546,1235.36L820.54,1247.41L832.915,1257.86L841.546,1235.36ZM826.361,1273.06L806.44,1256.23L795.548,1262.65L778.954,1248.63L848.943,1211.61L864.081,1224.39L838.718,1299.11L821.671,1284.71L826.361,1273.06Z" style="fill:rgb(255,248,240);fill-rule:nonzero;"/>
                    <path d="M971.826,1276.08L947.873,1345.29L931.956,1339.88L917.198,1292.9L904.202,1330.46L885.55,1324.12L909.504,1254.91L926.348,1260.63L940.605,1306.06L953.175,1269.74L971.826,1276.08Z" style="fill:rgb(255,248,240);fill-rule:nonzero;"/>
                    <path d="M1053.06,1314.72C1052.53,1303.88 1044.9,1297.03 1033.97,1297.55L1025.49,1297.97L1027.26,1334.17L1035.74,1333.76C1046.67,1333.24 1053.59,1325.51 1053.06,1314.72M1073.9,1313.72C1074.95,1335.05 1059.88,1351.08 1037.61,1352.16L1007.75,1353.59L1004.17,1280.51L1034.03,1279.08C1056.37,1278 1072.85,1292.36 1073.9,1313.72" style="fill:rgb(255,248,240);fill-rule:nonzero;"/>
                    <path d="M1100.18,1268L1119.61,1261.19L1144.26,1330.16L1124.82,1336.98L1100.18,1268Z" style="fill:rgb(255,248,240);fill-rule:nonzero;"/>
                    <path d="M1203.4,1210.12L1247.17,1269.05L1233.62,1278.93L1186.23,1264.18L1209.99,1296.16L1194.1,1307.74L1150.33,1248.8L1164.68,1238.35L1210.48,1252.61L1187.52,1221.7L1203.4,1210.12Z" style="fill:rgb(255,248,240);fill-rule:nonzero;"/>
                    <path d="M1293.79,1141.23C1314.46,1153.66 1320.94,1175.85 1308.93,1195.43C1297.18,1214.59 1274.6,1220.38 1255.4,1208.82C1236.19,1197.27 1230.71,1174.95 1242.52,1155.68C1252.57,1139.29 1271.15,1132.11 1287.43,1138.29L1276.37,1156.35C1269.66,1155.41 1262.81,1158.95 1258.9,1165.33C1253.15,1174.69 1256.12,1185.12 1266.21,1191.19C1276.19,1197.2 1286.84,1195.1 1292.64,1185.63C1296.68,1179.06 1296.92,1171.48 1293.26,1166.59L1283.73,1182.12L1272.77,1175.52L1293.79,1141.23Z" style="fill:rgb(255,248,240);fill-rule:nonzero;"/>
                    <g>
                        <g transform="matrix(1,0,0,1,0,-30.445)">
                            <path d="M712.803,1063.95L712.803,1072.65L688.822,1072.65L688.822,1036.21L712.359,1036.21L712.359,1044.89L698.908,1044.89L698.908,1050.26L710.996,1050.26L710.996,1058.49L698.908,1058.49L698.908,1063.95L712.803,1063.95Z" style="fill:rgb(255,248,240);fill-rule:nonzero;"/>
                        </g>
                        <g transform="matrix(1,0,0,1,0,-30.445)">
                            <path d="M716.827,1060.89L727.283,1060.89C727.283,1063.49 729.304,1064.76 731.622,1064.76C733.744,1064.76 735.765,1063.64 735.765,1061.65C735.765,1059.36 732.901,1058.7 729.406,1057.86C724.085,1056.55 717.299,1054.93 717.299,1046.64C717.299,1039.46 722.62,1035.35 731.297,1035.35C740.113,1035.35 745.174,1039.84 745.174,1047.25L735.005,1047.25C735.005,1044.95 733.272,1043.86 731.177,1043.86C729.369,1043.86 727.636,1044.64 727.636,1046.34C727.636,1048.41 730.407,1049.09 733.874,1049.96C739.288,1051.34 746.361,1053.13 746.361,1061.45C746.361,1069.41 740.187,1073.54 731.649,1073.54C722.648,1073.54 716.827,1068.83 716.827,1060.89" style="fill:rgb(255,248,240);fill-rule:nonzero;"/>
                        </g>
                        <g transform="matrix(1,0,0,1,0,-30.445)">
                            <path d="M778.519,1045.25L768.526,1045.25L768.526,1072.65L758.347,1072.65L758.347,1045.25L748.354,1045.25L748.354,1036.21L778.519,1036.21L778.519,1045.25Z" style="fill:rgb(255,248,240);fill-rule:nonzero;"/>
                        </g>
                        <g transform="matrix(1,0,0,1,0,-30.445)">
                            <rect x="778.204" y="1063.66" width="9.483" height="8.99" style="fill:rgb(255,248,240);fill-rule:nonzero;"/>
                        </g>
                        <g transform="matrix(1,0,0,1,0,31.603)">
                            <path d="M1277.26,1001.93L1277.26,1010.15L1251.26,1010.15L1251.26,1008.04C1265.32,991.61 1267.26,988.955 1267.26,985.982C1267.26,984.105 1266.01,982.846 1264.22,982.846C1262.26,982.846 1261.06,984.158 1261.06,986.241L1261.06,986.91L1251.83,986.91L1251.83,986.27C1251.83,979.27 1256.45,974.644 1264.11,974.644C1271.52,974.644 1276.64,979.158 1276.64,985.658C1276.64,990.014 1275.01,993.358 1267.54,1001.93L1277.26,1001.93Z" style="fill:rgb(255,248,240);fill-rule:nonzero;"/>
                        </g>
                        <g transform="matrix(1,0,0,1,0,31.1225)">
                            <path d="M1302.59,992.906C1302.59,986.528 1300.52,982.943 1296.87,982.943C1293.19,982.943 1291.15,986.498 1291.15,992.876C1291.15,999.254 1293.19,1002.81 1296.87,1002.81C1300.55,1002.81 1302.59,999.284 1302.59,992.906M1281.57,992.876C1281.57,981.787 1287.55,974.695 1296.87,974.695C1306.19,974.695 1312.17,981.787 1312.17,992.876C1312.17,1003.93 1306.16,1011.06 1296.87,1011.06C1287.58,1011.06 1281.57,1003.93 1281.57,992.876" style="fill:rgb(255,248,240);fill-rule:nonzero;"/>
                        </g>
                        <g transform="matrix(1,0,0,1,0,31.603)">
                            <path d="M1341.62,1001.93L1341.62,1010.15L1315.63,1010.15L1315.63,1008.04C1329.69,991.61 1331.62,988.955 1331.62,985.982C1331.62,984.105 1330.38,982.846 1328.59,982.846C1326.63,982.846 1325.43,984.158 1325.43,986.241L1325.43,986.91L1316.19,986.91L1316.19,986.27C1316.19,979.27 1320.82,974.644 1328.47,974.644C1335.89,974.644 1341.01,979.158 1341.01,985.658C1341.01,990.014 1339.38,993.358 1331.9,1001.93L1341.62,1001.93Z" style="fill:rgb(255,248,240);fill-rule:nonzero;"/>
                        </g>
                        <g transform="matrix(1,0,0,1,0,30.7615)">
                            <path d="M1363.52,988.241C1368.53,989.486 1371.74,993.504 1371.74,998.865C1371.74,1005.91 1366.23,1010.95 1358.56,1010.95C1351.05,1010.95 1345.89,1006.09 1345.68,998.925L1354.65,998.925C1354.75,1001.37 1356.28,1002.99 1358.58,1002.99C1360.97,1002.99 1362.65,1001.25 1362.65,998.715C1362.65,996.184 1360.91,994.615 1358.19,994.615L1352.59,994.615L1352.59,992.686L1358.28,983.417L1346.56,983.417L1346.56,975.527L1370.54,975.527L1370.54,977.118L1363.52,988.241Z" style="fill:rgb(255,248,240);fill-rule:nonzero;"/>
                        </g>
                    </g>
                    <g transform="matrix(0.472343,0,0,0.472343,557.954,539.88)">
                        <path d="M298.369,1045.18L298.369,1033.55L323.884,1033.55L323.884,1016L298.369,1016L298.369,1004.56L326.77,1004.56L326.77,986.059L277.061,986.059L277.061,1063.75L327.709,1063.75L327.709,1045.18L298.369,1045.18Z" style="fill:rgb(255,248,240);fill-rule:nonzero;"/>
                        <path d="M367.513,1065.64C385.552,1065.64 398.59,1056.84 398.59,1039.87C398.59,1022.13 383.639,1018.31 372.205,1015.36C364.89,1013.52 359.035,1012.06 359.035,1007.65C359.035,1004.02 362.697,1002.37 366.511,1002.37C370.946,1002.37 374.609,1004.68 374.609,1009.59L396.072,1009.59C396.072,993.784 385.392,984.223 366.767,984.223C348.449,984.223 337.208,992.987 337.208,1008.29C337.208,1025.97 351.543,1029.41 362.772,1032.2C370.166,1034 376.214,1035.41 376.214,1040.28C376.214,1044.53 371.932,1046.91 367.449,1046.91C362.57,1046.91 358.288,1044.21 358.288,1038.66L336.21,1038.66C336.21,1055.59 348.498,1065.64 367.513,1065.64L367.513,1065.64Z" style="fill:rgb(255,248,240);fill-rule:nonzero;"/>
                        <path d="M466.497,986.059L402.794,986.059L402.794,1005.33L423.898,1005.33L423.898,1063.75L445.394,1063.75L445.394,1005.33L466.497,1005.33L466.497,986.059Z" style="fill:rgb(255,248,240);fill-rule:nonzero;"/>
                        <rect x="465.834" y="1044.57" width="20.024" height="19.176" style="fill:rgb(255,248,240);fill-rule:nonzero;"/>
                    </g>
                    <g transform="matrix(0.472343,0,0,0.472343,1122.53,538.964)">
                        <path d="M306.911,1046.24C322.696,1027.96 326.132,1020.83 326.132,1011.54C326.132,997.685 315.322,988.06 299.667,988.06C283.509,988.06 273.728,997.924 273.728,1012.85L273.728,1014.21L293.237,1014.21L293.237,1012.78C293.237,1008.34 295.763,1005.55 299.906,1005.55C303.686,1005.55 306.323,1008.23 306.323,1012.23C306.323,1018.57 302.233,1024.23 272.538,1059.25L272.538,1063.75L327.429,1063.75L327.429,1046.24L306.911,1046.24Z" style="fill:rgb(255,248,240);fill-rule:nonzero;"/>
                        <path d="M368.866,1065.69C388.481,1065.69 401.171,1050.51 401.171,1026.93C401.171,1003.29 388.546,988.171 368.866,988.171C349.184,988.171 336.56,1003.29 336.56,1026.93C336.56,1050.51 349.249,1065.69 368.866,1065.69ZM368.866,1048.11C361.09,1048.11 356.792,1040.53 356.792,1026.93C356.792,1013.33 361.09,1005.75 368.866,1005.75C376.576,1005.75 380.938,1013.4 380.938,1026.99C380.938,1040.59 376.641,1048.11 368.866,1048.11Z" style="fill:rgb(255,248,240);fill-rule:nonzero;"/>
                        <path d="M442.861,1046.24C458.646,1027.96 462.082,1020.83 462.082,1011.54C462.082,997.685 451.273,988.06 435.618,988.06C419.459,988.06 409.678,997.924 409.678,1012.85L409.678,1014.21L429.188,1014.21L429.188,1012.78C429.188,1008.34 431.714,1005.55 435.856,1005.55C439.636,1005.55 442.273,1008.23 442.273,1012.23C442.273,1018.57 438.184,1024.23 408.489,1059.25L408.489,1063.75L463.379,1063.75L463.379,1046.24L442.861,1046.24Z" style="fill:rgb(255,248,240);fill-rule:nonzero;"/>
                        <path d="M509.636,1017.05L524.45,993.334L524.45,989.943L473.808,989.943L473.808,1006.77L498.579,1006.77L486.561,1026.52L486.561,1030.64L498.383,1030.64C504.126,1030.64 507.791,1033.98 507.791,1039.38C507.791,1044.77 504.254,1048.48 499.209,1048.48C494.356,1048.48 491.121,1045.03 490.899,1039.82L471.956,1039.82C472.4,1055.1 483.303,1065.45 499.163,1065.45C515.356,1065.45 526.988,1054.71 526.988,1039.7C526.988,1028.27 520.218,1019.7 509.637,1017.05L509.636,1017.05Z" style="fill:rgb(255,248,240);fill-rule:nonzero;"/>
                    </g>
                    <g transform="matrix(0.421818,0,0,0.417878,592.056,596.095)">
                        <path d="M1023.65,1084.02L1220.66,1233.32C1221.53,1233.98 1222.59,1234.33 1223.68,1234.33L1225.44,1234.33C1227.11,1234.33 1228.68,1233.5 1229.6,1232.1C1230.53,1230.71 1230.7,1228.94 1230.05,1227.4L1028.59,746.733C1027.81,744.875 1025.99,743.666 1023.98,743.666C1021.96,743.665 1020.14,744.874 1019.37,746.731L817.949,1226.7C817.301,1228.24 817.469,1230.01 818.395,1231.4C819.322,1232.8 820.885,1233.63 822.559,1233.63L824.566,1233.63C825.657,1233.63 826.717,1233.28 827.586,1232.62L1023.65,1084.02ZM1030.94,868.779L1131.28,1108.85C1131.28,1108.85 1030.94,1034 1030.94,1034L1030.94,868.779Z" style="fill:rgb(255,248,240);fill-rule:nonzero;"/>
                    </g>
                </g>
                <g id="Color-2" serif:id="Color 2">
                    <path d="M1024,645.28C813.198,645.28 641.702,815.172 641.702,1024C641.702,1232.83 813.198,1402.72 1024,1402.72C1234.8,1402.72 1406.29,1232.83 1406.29,1024C1406.29,815.172 1234.8,645.28 1024,645.28M1024,1432.68C968.313,1432.68 914.287,1421.88 863.414,1400.56C814.282,1379.97 770.166,1350.51 732.289,1312.98C694.403,1275.46 664.664,1231.75 643.881,1183.08C622.365,1132.69 611.455,1079.16 611.455,1024C611.455,968.833 622.365,915.31 643.881,864.916C664.664,816.248 694.403,772.543 732.289,735.015C770.166,697.487 814.282,668.021 863.414,647.437C914.287,626.121 968.313,615.313 1024,615.313C1079.68,615.313 1133.71,626.121 1184.58,647.437C1233.71,668.021 1277.83,697.487 1315.71,735.015C1353.59,772.543 1383.33,816.248 1404.12,864.916C1425.63,915.31 1436.54,968.833 1436.54,1024C1436.54,1079.16 1425.63,1132.69 1404.12,1183.08C1383.33,1231.75 1353.59,1275.46 1315.71,1312.98C1277.83,1350.51 1233.71,1379.97 1184.58,1400.56C1133.71,1421.88 1079.68,1432.68 1024,1432.68" style="fill:rgb(170,74,68);fill-rule:nonzero;"/>
                    <path d="M846.635,1041.53L849.672,1042.72C858.409,1124.91 924.05,1190.22 1006.41,1198.44L1006.41,1235.84C898.933,1227.02 814.002,1138.1 811.495,1028.96L846.635,1041.53ZM712.848,993.655L815.538,956.905L821.747,954.482C822.247,954.317 822.741,954.18 823.229,954.071C849.267,879.405 915.803,823.661 996.477,813.207L996.5,813.146L1006.41,785.333L1006.41,849.562L1006.4,849.557C927.971,857.391 864.698,917 851.304,993.655L712.848,993.655Z" style="fill:rgb(170,74,68);fill-rule:nonzero;"/>
                    <path d="M1041.59,1263.06L1041.59,1198.44C1119.5,1190.67 1182.46,1131.79 1196.38,1055.83C1196.36,1055.19 1196.38,1054.68 1196.46,1054.35L1333.92,1054.35L1231.23,1091.1L1225.02,1093.52C1224.97,1093.53 1224.92,1093.55 1224.87,1093.57C1198.97,1168.37 1132.41,1224.26 1051.67,1234.77C1051.62,1234.93 1051.56,1235.09 1051.5,1235.24L1041.59,1263.06Z" style="fill:rgb(170,74,68);fill-rule:nonzero;"/>
                    <path d="M1041.59,812.157C1149.2,820.981 1234.22,910.13 1236.45,1019.46L1199.34,1006.19L1198.38,1005.81C1189.86,923.358 1124.11,857.791 1041.59,849.556L1041.59,812.157Z" style="fill:rgb(170,74,68);"/>
                </g>
            </g>
        </g>
    </g>
</svg>
