<?xml version="1.0" encoding="UTF-8" standalone="no"?>
<!DOCTYPE svg PUBLIC "-//W3C//DTD SVG 1.1//EN" "http://www.w3.org/Graphics/SVG/1.1/DTD/svg11.dtd">
<!-- Created with Vectornator (http://vectornator.io/) -->
<svg height="100%" stroke-miterlimit="10" style="fill-rule:nonzero;clip-rule:evenodd;stroke-linecap:round;stroke-linejoin:round;" version="1.1" viewBox="0 0 2048 2048" width="100%" xml:space="preserve" xmlns="http://www.w3.org/2000/svg" xmlns:vectornator="http://vectornator.io" xmlns:xlink="http://www.w3.org/1999/xlink">
<defs/>
<clipPath id="ArtboardFrame">
<rect height="2048" width="2048" x="0" y="0"/>
</clipPath>
<g clip-path="url(#ArtboardFrame)" id="Untitled" vectornator:layerName="Untitled">
<g opacity="1" vectornator:layerName="g">
<g opacity="1" vectornator:layerName="Color-1">
<path d="M1946.28 1413.63C1895.88 1532.83 1823.69 1639.84 1731.8 1731.78C1639.86 1823.68 1532.85 1895.85 1413.65 1946.27C1290.21 1998.49 1159.11 2024.93 1024.01 2024.93C888.892 2024.93 757.802 1998.49 634.362 1946.27C515.162 1895.85 408.116 1823.68 316.211 1731.78C224.304 1639.84 152.136 1532.83 101.721 1413.63C49.5108 1290.19 23.0397 1159.1 23.0397 1023.99C23.0397 888.884 49.5108 757.796 101.721 634.358C152.136 515.168 224.304 408.13 316.211 316.211C408.116 224.301 515.162 152.134 634.362 101.718C757.802 49.5088 888.892 23.037 1024.01 23.037C1159.11 23.037 1290.21 49.5088 1413.65 101.718C1532.85 152.134 1639.89 224.301 1731.8 316.211C1823.69 408.13 1895.88 515.168 1946.28 634.361C1998.5 757.796 2024.96 888.884 2024.96 1023.99C2024.96 1159.1 1998.5 1290.19 1946.28 1413.63M1967.52 625.384C1915.93 503.449 1842.11 393.946 1748.09 299.919C1654.07 205.901 1544.56 132.076 1422.61 80.4962C1296.3 27.0812 1162.22-0.000836369 1024.01-0.000836369C885.793-0.000836369 751.693 27.0812 625.394 80.4962C503.448 132.076 393.941 205.903 299.924 299.919C205.889 393.946 132.07 503.449 80.5029 625.382C27.0841 751.675 0.00134614 885.785 0.00134614 1023.99C0.00134614 1162.19 27.0841 1296.3 80.5029 1422.6C132.07 1544.53 205.91 1654.03 299.924 1748.06C393.941 1842.08 503.448 1915.88 625.394 1967.47C751.693 2020.89 885.793 2048 1024.01 2048C1162.22 2048 1296.3 2020.89 1422.61 1967.47C1544.56 1915.9 1654.07 1842.08 1748.09 1748.06C1842.08 1654.03 1915.93 1544.53 1967.52 1422.6C2020.91 1296.3 2048 1162.19 2048 1023.99C2048 885.785 2020.91 751.675 1967.52 625.384" fill="#040404" fill-rule="nonzero" opacity="1" stroke="none" vectornator:layerName="path"/>
<path d="M594.54 440.651L611.945 498.165L644.383 474.321L594.54 440.651ZM677.632 498.797L625.418 537.191L634.867 567.114L591.375 599.092L540.919 409.24L580.586 380.069L748.044 483.889L703.345 516.752L677.632 498.797Z" fill="#040404" fill-rule="nonzero" opacity="1" stroke="none" vectornator:layerName="path"/>
<path d="M873.838 299.335L826.478 314.291L867.883 445.401L819.622 460.638L778.218 329.528L730.859 344.484L717.213 301.235L860.19 256.083L873.838 299.335Z" fill="#040404" fill-rule="nonzero" opacity="1" stroke="none" vectornator:layerName="path"/>
<path d="M1093.35 379.822L1092.99 425.953L976.854 425.001L978.347 242.156L1029.41 242.574L1028.3 379.289L1093.35 379.822Z" fill="#040404" fill-rule="nonzero" opacity="1" stroke="none" vectornator:layerName="path"/>
<path d="M1270.08 342.544L1231.96 388.995L1269.8 402.702L1270.08 342.544ZM1267.95 443.951L1207 421.883L1187.37 446.354L1136.61 427.973L1266.41 280.509L1312.71 297.277L1319.44 494.191L1267.31 475.302L1267.95 443.951Z" fill="#040404" fill-rule="nonzero" opacity="1" stroke="none" vectornator:layerName="path"/>
<path d="M1389.4 472.237L1429.28 505.581C1420.88 515.601 1424.53 526.944 1433.33 534.315C1441.44 541.082 1452.77 543.246 1459.17 535.583C1466.54 526.784 1457.75 515.103 1447.1 500.7C1431.05 478.7 1410.36 450.843 1437.1 418.915C1460.19 391.297 1493.74 392.451 1526.81 420.119C1560.4 448.247 1565.26 481.637 1541.36 510.171L1502.63 477.753C1510.05 468.884 1506.92 459.195 1498.9 452.494C1492.03 446.737 1482.92 444.186 1477.45 450.733C1470.79 458.697 1479.16 470.174 1489.56 484.542C1505.78 507.137 1526.97 536.612 1500.18 568.638C1474.56 599.267 1437.74 595.474 1405.17 568.226C1370.84 539.512 1363.82 502.806 1389.4 472.237" fill="#040404" fill-rule="nonzero" opacity="1" stroke="none" vectornator:layerName="path"/>
<path d="M416.444 1453.88L378.38 1476.3L321.946 1380.48L472.835 1291.63L497.626 1333.77L384.821 1400.18L416.444 1453.88Z" fill="#040404" fill-rule="nonzero" opacity="1" stroke="none" vectornator:layerName="path"/>
<path d="M591.465 1529.79L541.666 1558.62L571.003 1583.63L591.465 1529.79ZM555.466 1620L508.239 1579.73L482.418 1595.09L443.079 1561.54L609.001 1472.95L644.888 1503.53L584.761 1682.34L544.347 1647.88L555.466 1620Z" fill="#040404" fill-rule="nonzero" opacity="1" stroke="none" vectornator:layerName="path"/>
<path d="M900.318 1627.23L843.533 1792.85L805.799 1779.91L770.812 1667.48L740.003 1757.36L695.785 1742.19L752.572 1576.57L792.504 1590.26L826.303 1698.97L856.103 1612.06L900.318 1627.23Z" fill="#040404" fill-rule="nonzero" opacity="1" stroke="none" vectornator:layerName="path"/>
<path d="M1092.9 1719.7C1091.64 1693.76 1073.55 1677.36 1047.64 1678.61L1027.54 1679.61L1031.74 1766.24L1051.84 1765.26C1077.75 1764.02 1094.16 1745.52 1092.9 1719.7M1142.3 1717.3C1144.79 1768.35 1109.07 1806.71 1056.27 1809.29L985.483 1812.71L976.996 1637.83L1047.78 1634.41C1100.75 1631.83 1139.81 1666.19 1142.3 1717.3" fill="#040404" fill-rule="nonzero" opacity="1" stroke="none" vectornator:layerName="path"/>
<path d="M1204.61 1607.89L1250.67 1591.6L1309.11 1756.65L1263.02 1772.97L1204.61 1607.89Z" fill="#040404" fill-rule="nonzero" opacity="1" stroke="none" vectornator:layerName="path"/>
<path d="M1449.31 1469.39L1553.07 1610.41L1520.95 1634.05L1408.6 1598.75L1464.93 1675.28L1427.26 1702.99L1323.5 1561.95L1357.52 1536.94L1466.09 1571.07L1411.66 1497.1L1449.31 1469.39Z" fill="#040404" fill-rule="nonzero" opacity="1" stroke="none" vectornator:layerName="path"/>
<path d="M1663.6 1304.53C1712.6 1334.27 1727.96 1387.38 1699.49 1434.23C1671.63 1480.08 1618.1 1493.94 1572.58 1466.27C1527.04 1438.63 1514.05 1385.22 1542.05 1339.11C1565.88 1299.89 1609.92 1282.7 1648.52 1297.49L1622.3 1340.71C1606.39 1338.46 1590.15 1346.93 1580.88 1362.2C1567.25 1384.6 1574.29 1409.56 1598.21 1424.09C1621.87 1438.47 1647.12 1433.44 1660.87 1410.78C1670.45 1395.06 1671.02 1376.92 1662.34 1365.22L1639.75 1402.38L1613.76 1386.59L1663.6 1304.53Z" fill="#040404" fill-rule="nonzero" opacity="1" stroke="none" vectornator:layerName="path"/>
<g opacity="1" vectornator:layerName="g">
<path d="M286.255 1046.74L286.255 1067.56L229.404 1067.56L229.404 980.356L285.202 980.356L285.202 1001.13L253.314 1001.13L253.314 1013.98L281.971 1013.98L281.971 1033.67L253.314 1033.67L253.314 1046.74L286.255 1046.74Z" fill="#040404" fill-rule="nonzero" opacity="1" stroke="none" vectornator:layerName="path"/>
<path d="M295.795 1039.42L320.583 1039.42C320.583 1045.64 325.374 1048.68 330.869 1048.68C335.9 1048.68 340.691 1046 340.691 1041.23C340.691 1035.75 333.901 1034.18 325.616 1032.17C313.001 1029.03 296.914 1025.15 296.914 1005.32C296.914 988.133 309.528 978.298 330.099 978.298C350.999 978.298 362.997 989.043 362.997 1006.77L338.889 1006.77C338.889 1001.27 334.781 998.663 329.814 998.663C325.528 998.663 321.42 1000.53 321.42 1004.6C321.42 1009.55 327.989 1011.18 336.208 1013.26C349.043 1016.56 365.811 1020.85 365.811 1040.76C365.811 1059.8 351.174 1069.69 330.933 1069.69C309.595 1069.69 295.795 1058.42 295.795 1039.42" fill="#040404" fill-rule="nonzero" opacity="1" stroke="none" vectornator:layerName="path"/>
<path d="M442.047 1001.99L418.357 1001.99L418.357 1067.56L394.226 1067.56L394.226 1001.99L370.535 1001.99L370.535 980.356L442.047 980.356L442.047 1001.99Z" fill="#040404" fill-rule="nonzero" opacity="1" stroke="none" vectornator:layerName="path"/>
<path d="M441.301 1046.04L463.782 1046.04L463.782 1046.04L463.782 1067.56L463.782 1067.56L441.301 1067.56L441.301 1067.56L441.301 1046.04L441.301 1046.04Z" fill="#040404" fill-rule="nonzero" opacity="1" stroke="none" vectornator:layerName="rect"/>
<path d="M1624.41 1046.81L1624.41 1066.48L1562.77 1066.48L1562.77 1061.43C1596.1 1022.11 1600.7 1015.76 1600.7 1008.64C1600.7 1004.15 1597.74 1001.14 1593.49 1001.14C1588.85 1001.14 1586 1004.28 1586 1009.26L1586 1010.86L1564.12 1010.86L1564.12 1009.33C1564.12 992.579 1575.07 981.509 1593.23 981.509C1610.8 981.509 1622.94 992.311 1622.94 1007.87C1622.94 1018.29 1619.07 1026.29 1601.36 1046.81L1624.41 1046.81Z" fill="#040404" fill-rule="nonzero" opacity="1" stroke="none" vectornator:layerName="path"/>
<path d="M1684.46 1024.06C1684.46 1008.8 1679.55 1000.22 1670.9 1000.22C1662.17 1000.22 1657.34 1008.73 1657.34 1023.99C1657.34 1039.25 1662.17 1047.76 1670.9 1047.76C1679.62 1047.76 1684.46 1039.32 1684.46 1024.06M1634.63 1023.99C1634.63 997.453 1648.8 980.481 1670.9 980.481C1692.99 980.481 1707.17 997.453 1707.17 1023.99C1707.17 1050.44 1692.92 1067.5 1670.9 1067.5C1648.87 1067.5 1634.63 1050.44 1634.63 1023.99" fill="#040404" fill-rule="nonzero" opacity="1" stroke="none" vectornator:layerName="path"/>
<path d="M1776.99 1046.81L1776.99 1066.48L1715.37 1066.48L1715.37 1061.43C1748.7 1022.11 1753.28 1015.76 1753.28 1008.64C1753.28 1004.15 1750.34 1001.14 1746.1 1001.14C1741.45 1001.14 1738.6 1004.28 1738.6 1009.26L1738.6 1010.86L1716.7 1010.86L1716.7 1009.33C1716.7 992.579 1727.67 981.509 1745.81 981.509C1763.4 981.509 1775.54 992.311 1775.54 1007.87C1775.54 1018.29 1771.67 1026.29 1753.94 1046.81L1776.99 1046.81Z" fill="#040404" fill-rule="nonzero" opacity="1" stroke="none" vectornator:layerName="path"/>
<path d="M1828.9 1012.03C1840.78 1015.01 1848.39 1024.63 1848.39 1037.46C1848.39 1054.32 1835.33 1066.38 1817.14 1066.38C1799.34 1066.38 1787.11 1054.75 1786.61 1037.6L1807.88 1037.6C1808.11 1043.45 1811.74 1047.33 1817.19 1047.33C1822.86 1047.33 1826.84 1043.16 1826.84 1037.1C1826.84 1031.04 1822.72 1027.29 1816.27 1027.29L1802.99 1027.29L1802.99 1022.67L1816.48 1000.49L1788.7 1000.49L1788.7 981.609L1845.55 981.609L1845.55 985.416L1828.9 1012.03Z" fill="#040404" fill-rule="nonzero" opacity="1" stroke="none" vectornator:layerName="path"/>
</g>
<g opacity="1" vectornator:layerName="g">
<path d="M253.263 1046.88L253.263 1033.73L281.834 1033.73L281.834 1013.9L253.263 1013.9L253.263 1000.96L285.066 1000.96L285.066 980.052L229.403 980.052L229.403 1067.87L286.118 1067.87L286.118 1046.88L253.263 1046.88Z" fill="#040404" fill-rule="nonzero" opacity="1" stroke="none" vectornator:layerName="path"/>
<path d="M330.689 1070.01C350.889 1070.01 365.489 1060.06 365.489 1040.88C365.489 1020.82 348.747 1016.51 335.943 1013.17C327.752 1011.09 321.196 1009.44 321.196 1004.46C321.196 1000.35 325.296 998.489 329.567 998.489C334.534 998.489 338.635 1001.1 338.635 1006.65L362.669 1006.65C362.669 988.784 350.71 977.977 329.854 977.977C309.342 977.977 296.754 987.883 296.754 1005.18C296.754 1025.16 312.806 1029.05 325.38 1032.21C333.66 1034.24 340.433 1035.84 340.433 1041.34C340.433 1046.14 335.638 1048.83 330.618 1048.83C325.154 1048.83 320.359 1045.78 320.359 1039.51L295.637 1039.51C295.637 1058.65 309.397 1070.01 330.689 1070.01L330.689 1070.01Z" fill="#040404" fill-rule="nonzero" opacity="1" stroke="none" vectornator:layerName="path"/>
<path d="M441.53 980.052L370.196 980.052L370.196 1001.83L393.828 1001.83L393.828 1067.87L417.899 1067.87L417.899 1001.83L441.53 1001.83L441.53 980.052Z" fill="#040404" fill-rule="nonzero" opacity="1" stroke="none" vectornator:layerName="path"/>
<path d="M440.787 1046.19L463.21 1046.19L463.21 1046.19L463.21 1067.86L463.21 1067.86L440.787 1067.86L440.787 1067.86L440.787 1046.19L440.787 1046.19Z" fill="#040404" fill-rule="nonzero" opacity="1" stroke="none" vectornator:layerName="rect"/>
</g>
<g opacity="1" vectornator:layerName="g">
<path d="M1601.26 1045.88C1618.94 1025.22 1622.79 1017.16 1622.79 1006.66C1622.79 991.001 1610.68 980.122 1593.15 980.122C1575.06 980.122 1564.11 991.271 1564.11 1008.14L1564.11 1009.68L1585.95 1009.68L1585.95 1008.06C1585.95 1003.05 1588.78 999.891 1593.42 999.891C1597.65 999.891 1600.6 1002.92 1600.6 1007.44C1600.6 1014.61 1596.03 1021.01 1562.77 1060.59L1562.77 1065.68L1624.24 1065.68L1624.24 1045.88L1601.26 1045.88Z" fill="#040404" fill-rule="nonzero" opacity="1" stroke="none" vectornator:layerName="path"/>
<path d="M1670.64 1067.87C1692.6 1067.87 1706.81 1050.71 1706.81 1024.06C1706.81 997.337 1692.68 980.247 1670.64 980.247C1648.6 980.247 1634.46 997.337 1634.46 1024.06C1634.46 1050.71 1648.67 1067.87 1670.64 1067.87ZM1670.64 1048C1661.93 1048 1657.12 1039.43 1657.12 1024.06C1657.12 1008.69 1661.93 1000.12 1670.64 1000.12C1679.27 1000.12 1684.16 1008.76 1684.16 1024.13C1684.16 1039.5 1679.35 1048 1670.64 1048Z" fill="#040404" fill-rule="nonzero" opacity="1" stroke="none" vectornator:layerName="path"/>
<path d="M1753.5 1045.88C1771.17 1025.22 1775.02 1017.16 1775.02 1006.66C1775.02 991.001 1762.92 980.122 1745.39 980.122C1727.29 980.122 1716.34 991.271 1716.34 1008.14L1716.34 1009.68L1738.19 1009.68L1738.19 1008.06C1738.19 1003.05 1741.02 999.891 1745.65 999.891C1749.89 999.891 1752.84 1002.92 1752.84 1007.44C1752.84 1014.61 1748.26 1021.01 1715.01 1060.59L1715.01 1065.68L1776.47 1065.68L1776.47 1045.88L1753.5 1045.88Z" fill="#040404" fill-rule="nonzero" opacity="1" stroke="none" vectornator:layerName="path"/>
<path d="M1828.27 1012.89L1844.86 986.083L1844.86 982.25L1788.15 982.25L1788.15 1001.27L1815.89 1001.27L1802.43 1023.59L1802.43 1028.25L1815.67 1028.25C1822.1 1028.25 1826.2 1032.03 1826.2 1038.13C1826.2 1044.22 1822.24 1048.42 1816.59 1048.42C1811.16 1048.42 1807.54 1044.52 1807.29 1038.63L1786.08 1038.63C1786.57 1055.9 1798.78 1067.6 1816.54 1067.6C1834.68 1067.6 1847.7 1055.46 1847.7 1038.49C1847.7 1025.57 1840.12 1015.89 1828.27 1012.89L1828.27 1012.89Z" fill="#040404" fill-rule="nonzero" opacity="1" stroke="none" vectornator:layerName="path"/>
</g>
<path d="M1023.65 1084.02L1220.66 1233.32C1221.53 1233.98 1222.59 1234.33 1223.68 1234.33L1225.44 1234.33C1227.11 1234.33 1228.68 1233.5 1229.6 1232.1C1230.53 1230.71 1230.7 1228.94 1230.05 1227.4L1028.59 746.731C1027.81 744.873 1025.99 743.664 1023.98 743.664C1021.96 743.663 1020.14 744.872 1019.37 746.729L817.95 1226.7C817.302 1228.24 817.47 1230.01 818.396 1231.4C819.323 1232.8 820.886 1233.63 822.56 1233.63L824.567 1233.63C825.658 1233.63 826.718 1233.28 827.587 1232.62L1023.65 1084.02ZM1030.94 868.777L1131.28 1108.85L1030.94 1034L1030.94 868.777Z" fill="#040404" fill-rule="nonzero" opacity="1" stroke="none" vectornator:layerName="path"/>
</g>
<g opacity="1" vectornator:layerName="Color-2">
<path d="M1024.01 117.701C524.26 117.701 117.697 524.259 117.697 1023.99C117.697 1523.73 524.26 1930.29 1024.01 1930.29C1523.75 1930.29 1930.3 1523.73 1930.3 1023.99C1930.3 524.259 1523.75 117.701 1024.01 117.701M1024.01 2001.98C891.99 2001.98 763.911 1976.14 643.307 1925.12C526.83 1875.84 422.245 1805.34 332.45 1715.53C242.634 1625.75 172.132 1521.15 122.862 1404.68C71.8546 1284.09 45.9904 1155.99 45.9904 1023.99C45.9904 891.976 71.8546 763.893 122.862 643.299C172.132 526.834 242.634 422.246 332.45 332.44C422.245 242.634 526.83 172.121 643.307 122.863C763.911 71.8526 891.99 45.9886 1024.01 45.9886C1156.01 45.9886 1284.1 71.8526 1404.69 122.863C1521.16 172.121 1625.76 242.634 1715.56 332.44C1805.36 422.246 1875.87 526.834 1925.15 643.299C1976.15 763.893 2002.01 891.976 2002.01 1023.99C2002.01 1155.99 1976.15 1284.09 1925.15 1404.68C1875.87 1521.15 1805.36 1625.75 1715.56 1715.53C1625.76 1805.34 1521.16 1875.84 1404.69 1925.12C1284.1 1976.14 1156.01 2001.98 1024.01 2001.98" fill="#5b7553" fill-rule="nonzero" opacity="1" stroke="none" vectornator:layerName="path"/>
<path d="M603.529 1065.94L610.729 1068.79C631.442 1265.47 787.056 1421.76 982.306 1441.43L982.306 1530.93C727.512 1509.83 526.167 1297.04 520.223 1035.86L603.529 1065.94ZM286.362 951.376L529.808 863.432L544.528 857.634C545.713 857.239 546.884 856.911 548.041 856.65C609.769 677.971 767.505 544.574 958.758 519.557L958.813 519.411L982.306 452.853L982.306 606.556L982.283 606.544C796.352 625.291 646.351 767.938 614.598 951.376L286.362 951.376Z" fill="#5b7553" fill-rule="nonzero" opacity="1" stroke="none" vectornator:layerName="path"/>
<path d="M1065.71 1596.07L1065.71 1441.43C1250.41 1422.84 1399.67 1281.94 1432.67 1100.16C1432.62 1098.63 1432.67 1097.41 1432.86 1096.62L1758.73 1096.62L1515.28 1184.57L1500.56 1190.36C1500.44 1190.38 1500.33 1190.43 1500.21 1190.48C1438.81 1369.48 1281.01 1503.22 1089.6 1528.37C1089.49 1528.76 1089.34 1529.14 1089.2 1529.5L1065.71 1596.07Z" fill="#5b7553" fill-rule="nonzero" opacity="1" stroke="none" vectornator:layerName="path"/>
<path d="M1065.71 517.044C1320.82 538.16 1522.37 751.497 1527.66 1013.13L1439.68 981.373L1437.41 980.464C1417.21 783.153 1261.34 626.248 1065.71 606.541L1065.71 517.044Z" fill="#5b7553" fill-rule="evenodd" opacity="1" stroke="none" vectornator:layerName="path"/>
</g>
</g>
</g>
</svg>
