<?xml version="1.0" encoding="UTF-8" standalone="no"?>
<!DOCTYPE svg PUBLIC "-//W3C//DTD SVG 1.1//EN" "http://www.w3.org/Graphics/SVG/1.1/DTD/svg11.dtd">
<!-- Created with Vectornator (http://vectornator.io/) -->
<svg height="100%" stroke-miterlimit="10" style="fill-rule:nonzero;clip-rule:evenodd;stroke-linecap:round;stroke-linejoin:round;" version="1.1" viewBox="0 0 180 180" width="100%" xml:space="preserve" xmlns="http://www.w3.org/2000/svg" xmlns:vectornator="http://vectornator.io" xmlns:xlink="http://www.w3.org/1999/xlink">
<defs/>
<g id="Layer-1" vectornator:layerName="Layer 1">
<g opacity="1" vectornator:layerName="g 3">
<path d="M14.6679 9.41895L165.332 9.41895L165.332 9.41895L165.332 166.178L165.332 166.178L14.6679 166.178L14.6679 166.178L14.6679 9.41895L14.6679 9.41895Z" fill="#000000" fill-rule="nonzero" opacity="0" stroke="none" vectornator:layerName="rect"/>
<path d="M55.9502 124.571C79.4355 148.056 107.959 166.178 131.282 166.178C141.765 166.178 150.948 162.521 158.343 154.395C162.65 149.6 165.332 143.993 165.332 138.467C165.332 134.403 163.788 130.503 159.968 127.74L135.02 110.024C131.201 107.423 128.031 106.123 125.106 106.123C121.449 106.123 118.117 108.236 114.379 111.894L108.61 117.581C107.715 118.476 106.578 118.882 105.522 118.882C104.303 118.882 103.083 118.394 102.27 117.988C97.2324 115.306 88.6184 107.911 80.5732 99.9473C72.6093 91.9835 65.2143 83.3695 62.6138 78.3311C62.2075 77.4372 61.7199 76.2995 61.7199 75.0804C61.7199 74.024 62.045 72.9676 62.9389 72.0737L68.7086 66.1415C72.2843 62.4033 74.4784 59.1527 74.4784 55.4145C74.4784 52.489 73.0969 49.3197 70.4152 45.5003L52.9434 20.8772C50.0991 16.9765 46.1172 15.27 41.7289 15.27C36.3654 15.27 30.8395 17.7079 26.0449 22.3399C18.1622 29.8976 14.6679 39.2429 14.6679 49.5635C14.6679 72.8863 32.4647 101.166 55.9502 124.571Z" fill="#000000" fill-rule="nonzero" opacity="1" stroke="none" vectornator:layerName="path"/>
</g>
</g>
</svg>
