<?xml version="1.0" encoding="UTF-8" standalone="no"?>
<!DOCTYPE svg PUBLIC "-//W3C//DTD SVG 1.1//EN" "http://www.w3.org/Graphics/SVG/1.1/DTD/svg11.dtd">
<svg width="100%" height="100%" viewBox="0 0 2782 334" version="1.1" xmlns="http://www.w3.org/2000/svg" xmlns:xlink="http://www.w3.org/1999/xlink" xml:space="preserve" xmlns:serif="http://www.serif.com/" style="fill-rule:evenodd;clip-rule:evenodd;stroke-linejoin:round;stroke-miterlimit:2;">
    <g transform="matrix(1,0,0,1,-518.903,-913.077)">
        <g transform="matrix(1,0,0,1,57.3213,0)">
            <g transform="matrix(0.288148,0,0,0.288148,573.549,809.184)">
                <path d="M1286.26,526.524L608.38,526.524L608.38,731.589L832.954,731.589L832.954,1353.21L1061.7,1353.21L1061.7,731.589L1286.26,731.589L1286.26,526.524Z" style="fill:rgb(30,30,36);fill-rule:nonzero;"/>
                <path d="M1618.66,1144.65L1618.66,526.524L1387.89,526.524L1387.89,1353.21L1912.86,1353.21L1912.86,1144.65L1618.66,1144.65Z" style="fill:rgb(30,30,36);fill-rule:nonzero;"/>
                <path d="M2563.26,1353.21L2814.05,1353.21L2482.2,526.524L2259.57,526.524L1934.84,1353.21L2178.9,1353.21L2224.69,1218.94L2517.71,1218.94L2563.26,1353.21ZM2462.13,1040.72L2280.16,1040.72L2370.74,784.556L2462.13,1040.72Z" style="fill:rgb(30,30,36);fill-rule:nonzero;"/>
                <path d="M3152.31,1373.42C3344.27,1373.42 3483.01,1279.7 3483.01,1099.15C3483.01,910.377 3323.91,869.728 3202.24,838.337C3124.4,818.768 3062.09,803.239 3062.09,756.283C3062.09,717.701 3101.06,700.128 3141.64,700.128C3188.85,700.128 3227.82,724.645 3227.82,776.927L3456.22,776.927C3456.22,608.732 3342.56,506.991 3144.37,506.991C2949.44,506.991 2829.83,600.253 2829.83,763.05C2829.83,951.25 2982.36,987.86 3101.85,1017.56C3180.54,1036.63 3244.89,1051.67 3244.89,1103.53C3244.89,1148.69 3199.33,1174.07 3151.63,1174.07C3099.7,1174.07 3054.14,1145.32 3054.14,1086.27L2819.2,1086.27C2819.2,1266.46 2949.97,1373.42 3152.31,1373.42L3152.31,1373.42Z" style="fill:rgb(30,30,36);fill-rule:nonzero;"/>
                <path d="M4089.26,1144.65L4089.26,526.524L3858.49,526.524L3858.49,1353.21L4383.46,1353.21L4383.46,1144.65L4089.26,1144.65Z" style="fill:rgb(30,30,36);fill-rule:nonzero;"/>
                <path d="M5033.86,1353.21L5284.65,1353.21L4952.8,526.524L4730.17,526.524L4405.44,1353.21L4649.5,1353.21L4695.28,1218.94L4988.31,1218.94L5033.86,1353.21ZM4932.73,1040.72L4750.76,1040.72L4841.34,784.556L4932.73,1040.72Z" style="fill:rgb(30,30,36);fill-rule:nonzero;"/>
                <path d="M5881.01,526.524L5881.01,960.237L5563.57,526.524L5364.24,526.524L5364.24,1353.21L5584.94,1353.21L5584.94,904.578L5913.35,1353.21L6101.71,1353.21L6101.71,526.524L5881.01,526.524Z" style="fill:rgb(30,30,36);fill-rule:nonzero;"/>
                <path d="M6596.36,526.524L6261.78,526.524L6261.78,1353.21L6596.36,1353.21C6845.97,1353.21 7023.11,1180.43 7023.11,939.192C7023.11,697.624 6846.65,526.524 6596.36,526.524L6596.36,526.524ZM6585.62,1144.65L6490.53,1144.65L6490.53,735.096L6585.62,735.096C6708.04,735.096 6789.64,816.548 6789.64,939.192C6789.64,1061.15 6708.04,1144.65 6585.62,1144.65L6585.62,1144.65Z" style="fill:rgb(30,30,36);fill-rule:nonzero;"/>
                <rect x="7141.6" y="526.524" width="230.762" height="826.682" style="fill:rgb(30,30,36);fill-rule:nonzero;"/>
                <path d="M8049.28,526.524L8049.28,960.237L7731.84,526.524L7532.51,526.524L7532.51,1353.21L7753.21,1353.21L7753.21,904.578L8081.62,1353.21L8269.98,1353.21L8269.98,526.524L8049.28,526.524Z" style="fill:rgb(30,30,36);fill-rule:nonzero;"/>
                <path d="M8810.04,911.416L8810.04,1055L9015.35,1055C8989.36,1118.75 8914.82,1160.81 8827.91,1160.81C8702.72,1160.81 8620.62,1071.27 8620.62,940.539C8620.62,808.447 8704.08,718.905 8827.91,718.905C8912.21,718.905 8986.19,763.676 9016.1,833.318L9254.77,833.318C9219.8,641.209 9042.55,505.609 8825.86,505.609C8571.2,505.609 8387.5,689.015 8387.5,940.527C8387.5,1192.04 8574.6,1374.09 8827.89,1374.09C9086.77,1374.09 9263.38,1181.91 9263.38,911.392L8810.04,911.416Z" style="fill:rgb(30,30,36);fill-rule:nonzero;"/>
            </g>
            <g transform="matrix(1.89477,0,0,1.38649,-1321.08,-334.776)">
                <path d="M1024.33,949.871L1070.85,1085.9L1024.33,1043.49L1024.33,949.871ZM1023.42,1063.53L1102.95,1137.19L1103.65,1137.19L1023.55,903.617L943.469,1136.85L944.267,1136.85L1023.42,1063.53Z" style="fill:rgb(30,30,36);fill-rule:nonzero;stroke:rgb(30,30,36);stroke-width:6.02px;"/>
            </g>
        </g>
    </g>
</svg>
