<?xml version="1.0" encoding="utf-8"?>
<!-- Generator: Adobe Illustrator 26.3.1, SVG Export Plug-In . SVG Version: 6.00 Build 0)  -->
<svg version="1.1" id="Layer_1" xmlns="http://www.w3.org/2000/svg" xmlns:xlink="http://www.w3.org/1999/xlink" x="0px" y="0px"
	 viewBox="0 0 512 512" style="enable-background:new 0 0 512 512;" xml:space="preserve">
<style type="text/css">
	.st0{fill-rule:evenodd;clip-rule:evenodd;}
</style>
<g>
	<path class="st0" d="M205.85,285.01L63.4,233.07c-15.47,41.55-17.02,85.22,0,131.73l144.35-50.1
		C217.57,303.32,213.35,293.94,205.85,285.01z M226.47,353.67l-95.59,107.62c29.12,40.67,72.13,53.86,123.73,50.1l-4.71-148.46
		C246.8,352.1,236.97,352.32,226.47,353.67z M308.02,335.11c-10.11,2.26-15.47,8.27-13.11,20.41l79.4,133.03
		c35.3-16.02,70.56-53.45,86.49-108.9L308.02,335.11z M460.33,256.13c-10.37-59.41-46.92-99.78-79.58-119.96l-92.41,122.86
		c-0.85,13.22,5.95,18.86,15,22.26L460.33,256.13z M235.73,242.85L93.35,51.75C134,15.73,180.51-9.58,258.1,3.49v231.96
		C258.1,246.56,243.85,249.05,235.73,242.85z"/>
</g>
</svg>
